<?xml version="1.0" standalone="no"?>
<!DOCTYPE svg PUBLIC "-//W3C//DTD SVG 20010904//EN"
 "http://www.w3.org/TR/2001/REC-SVG-20010904/DTD/svg10.dtd">
<svg version="1.0" xmlns="http://www.w3.org/2000/svg"
 width="413.000000pt" height="413.000000pt" viewBox="0 0 413.000000 413.000000"
 preserveAspectRatio="xMidYMid meet">
<metadata>
Created by potrace 1.14, written by Peter Selinger 2001-2017
</metadata>
<g transform="translate(0.000000,413.000000) scale(0.100000,-0.100000)"
fill="#000000" stroke="none">
<path d="M440 2685 l0 -135 140 0 140 0 0 135 0 135 -140 0 -140 0 0 -135z"/>
<path d="M795 2691 c0 -71 3 -133 7 -137 4 -4 63 -7 132 -6 l123 0 1 -76 c0
-43 1 -82 1 -89 1 -7 19 -13 43 -15 l43 -3 0 -74 c1 -54 -2 -74 -13 -78 -7 -3
-86 -6 -175 -7 l-162 -1 0 -90 0 -90 175 -5 175 -5 1 -77 0 -78 -176 0 -175 0
0 -92 0 -93 55 -2 c30 -1 69 -2 87 -2 l32 -1 3 -87 3 -88 41 3 42 3 0 -73 c0
-40 1 -81 1 -91 1 -16 42 -17 748 -15 l748 3 0 440 0 440 -352 3 -353 3 0
-141 0 -140 40 0 40 0 0 -80 0 -80 -125 0 -125 0 0 300 c0 279 1 300 18 301 9
0 403 0 875 1 l857 0 0 224 0 224 -1318 0 -1317 0 0 -129z"/>
<path d="M3550 2515 l0 -305 -37 -1 c-21 0 -208 0 -415 -1 l-378 0 0 -444 0
-444 268 2 267 3 1 205 c1 113 2 211 3 218 1 9 37 12 146 12 l145 0 0 -220 0
-220 290 0 290 0 0 750 0 750 -290 0 -290 0 0 -305z"/>
<path d="M90 2440 l0 -70 160 0 160 0 0 70 0 70 -160 0 -160 0 0 -70z"/>
<path d="M430 2115 l0 -95 160 0 160 0 0 95 0 95 -160 0 -160 0 0 -95z"/>
<path d="M0 1850 l0 -90 260 0 260 0 0 90 0 90 -260 0 -260 0 0 -90z"/>
<path d="M490 1570 l0 -90 125 0 125 0 0 90 0 90 -125 0 -125 0 0 -90z"/>
<path d="M800 1400 l0 -80 80 0 80 0 0 80 0 80 -80 0 -80 0 0 -80z"/>
</g>
</svg>
